<svg width="30" height="30" viewBox="0 0 30 30" fill="none" xmlns="http://www.w3.org/2000/svg">
<path d="M10 15C13.4518 15 16.25 12.2018 16.25 8.75C16.25 5.29822 13.4518 2.5 10 2.5C6.54822 2.5 3.75 5.29822 3.75 8.75C3.75 12.2018 6.54822 15 10 15Z" fill="#DF0000" stroke="black" stroke-width="2" stroke-linejoin="round"/>
<path d="M16.25 9.50122C16.259 9.5102 19.2018 13.211 25.0785 20.6035C25.2851 20.8519 25.2685 21.2168 25.04 21.4452L22.4878 23.9974C22.2594 24.2259 21.8945 24.2425 21.6461 24.0359L11.1389 15" stroke="black" stroke-width="2" stroke-linecap="round" stroke-linejoin="round"/>
<path d="M16.5438 15.2937L18.3116 17.0615" stroke="black" stroke-width="2" stroke-linecap="round" stroke-linejoin="round"/>
<path d="M10.625 27.554C11.8229 25.9925 13.2793 25.2118 14.9941 25.2118C17.5664 25.2118 20.6018 28.4435 23.1914 27.9988C25.781 27.554 26.5222 25 24.9282 23.5859" stroke="black" stroke-width="2" stroke-linecap="round" stroke-linejoin="round"/>
</svg>
