<svg width="33" height="33" viewBox="0 0 33 33" fill="none" xmlns="http://www.w3.org/2000/svg">
<g clip-path="url(#clip0_214_2238)">
<path d="M4.125 28.8749L10.0884 11.8689L21.3125 23.4013L4.125 28.8749Z" fill="#DF0000" stroke="black" stroke-width="2" stroke-linejoin="round"/>
<path d="M15.8125 13.0625L19.25 9.625C21.0833 7.79167 21.3125 6.1875 19.9375 4.8125" stroke="black" stroke-width="2" stroke-linecap="round" stroke-linejoin="round"/>
<path d="M19.9375 17.1875L23.375 13.75C25.6667 11.4583 27.9583 11.4583 30.25 13.75" stroke="black" stroke-width="2" stroke-linecap="round" stroke-linejoin="round"/>
<path d="M13.75 4.8125C14.5094 4.8125 15.125 4.19689 15.125 3.4375C15.125 2.67811 14.5094 2.0625 13.75 2.0625C12.9906 2.0625 12.375 2.67811 12.375 3.4375C12.375 4.19689 12.9906 4.8125 13.75 4.8125Z" fill="black"/>
<path d="M28.875 4.125C29.6344 4.125 30.25 3.50939 30.25 2.75C30.25 1.99061 29.6344 1.375 28.875 1.375C28.1156 1.375 27.5 1.99061 27.5 2.75C27.5 3.50939 28.1156 4.125 28.875 4.125Z" fill="black"/>
<path d="M28.875 19.9375C29.6344 19.9375 30.25 19.3219 30.25 18.5625C30.25 17.8031 29.6344 17.1875 28.875 17.1875C28.1156 17.1875 27.5 17.8031 27.5 18.5625C27.5 19.3219 28.1156 19.9375 28.875 19.9375Z" fill="black"/>
<path d="M26.8125 26.125C27.5719 26.125 28.1875 25.5094 28.1875 24.75C28.1875 23.9906 27.5719 23.375 26.8125 23.375C26.0531 23.375 25.4375 23.9906 25.4375 24.75C25.4375 25.5094 26.0531 26.125 26.8125 26.125Z" fill="black"/>
</g>
<defs>
<clipPath id="clip0_214_2238">
<rect width="33" height="33" fill="white"/>
</clipPath>
</defs>
</svg>
