<svg width="133" height="29" viewBox="0 0 133 29" fill="none" xmlns="http://www.w3.org/2000/svg">
<path d="M30.5629 22V6.16602H33.8393V12.2031H40.0268V6.16602H43.3139V22H40.0268V14.9316H33.8393V22H30.5629ZM51.5918 16.3066C51.3984 16.4284 51.2015 16.5286 51.001 16.6074C50.8076 16.679 50.5391 16.7471 50.1953 16.8115L49.5078 16.9404C48.8633 17.055 48.4014 17.1947 48.1221 17.3594C47.6494 17.6387 47.4131 18.0719 47.4131 18.6592C47.4131 19.182 47.5563 19.5615 47.8428 19.7979C48.1364 20.027 48.4909 20.1416 48.9062 20.1416C49.5651 20.1416 50.1702 19.9482 50.7217 19.5615C51.2803 19.1748 51.5703 18.4694 51.5918 17.4453V16.3066ZM49.7334 14.8779C50.2992 14.8063 50.7038 14.7168 50.9473 14.6094C51.3841 14.4232 51.6025 14.1331 51.6025 13.7393C51.6025 13.2594 51.4342 12.93 51.0977 12.751C50.7682 12.5648 50.2812 12.4717 49.6367 12.4717C48.9134 12.4717 48.4014 12.6507 48.1006 13.0088C47.8857 13.2738 47.7425 13.6318 47.6709 14.083H44.7168C44.7812 13.0589 45.0677 12.2174 45.5762 11.5586C46.3854 10.5273 47.7747 10.0117 49.7441 10.0117C51.026 10.0117 52.1647 10.266 53.1602 10.7744C54.1556 11.2829 54.6533 12.2425 54.6533 13.6533V19.0244C54.6533 19.3968 54.6605 19.848 54.6748 20.3779C54.6963 20.779 54.7572 21.0511 54.8574 21.1943C54.9577 21.3376 55.1081 21.4557 55.3086 21.5488V22H51.9785C51.8854 21.7637 51.821 21.5417 51.7852 21.334C51.7493 21.1263 51.7207 20.89 51.6992 20.625C51.2767 21.0833 50.7897 21.4736 50.2383 21.7959C49.5794 22.1755 48.8346 22.3652 48.0039 22.3652C46.944 22.3652 46.0667 22.0645 45.3721 21.4629C44.6846 20.8542 44.3408 19.9948 44.3408 18.8848C44.3408 17.4453 44.8958 16.4033 46.0059 15.7588C46.6146 15.4079 47.5098 15.1572 48.6914 15.0068L49.7334 14.8779ZM62.7701 10.0117C63.9804 10.0117 64.9687 10.3304 65.735 10.9678C66.5084 11.598 66.8951 12.6471 66.8951 14.1152V22H63.7584V14.8779C63.7584 14.262 63.676 13.7894 63.5113 13.46C63.2105 12.8584 62.6376 12.5576 61.7926 12.5576C60.7542 12.5576 60.0416 12.998 59.6549 13.8789C59.4544 14.3444 59.3541 14.9388 59.3541 15.6621V22H56.3033V10.3125H59.2574V12.0205C59.6513 11.4189 60.0237 10.9857 60.3746 10.7207C61.0048 10.248 61.8033 10.0117 62.7701 10.0117ZM72.9494 10.0117C73.6584 10.0117 74.2886 10.1693 74.84 10.4844C75.3915 10.7923 75.8391 11.222 76.1828 11.7734V6.1875H79.2873V22H76.3117V20.3779C75.8749 21.0726 75.3771 21.5775 74.8186 21.8926C74.26 22.2077 73.5653 22.3652 72.7346 22.3652C71.3667 22.3652 70.2137 21.8138 69.2756 20.7109C68.3446 19.6009 67.8791 18.1794 67.8791 16.4463C67.8791 14.4482 68.3374 12.8763 69.2541 11.7305C70.1779 10.5846 71.4097 10.0117 72.9494 10.0117ZM73.6154 19.7871C74.482 19.7871 75.1408 19.4648 75.592 18.8203C76.0432 18.1758 76.2687 17.3415 76.2687 16.3174C76.2687 14.8851 75.9071 13.861 75.1838 13.2451C74.7398 12.8727 74.2242 12.6865 73.6369 12.6865C72.7417 12.6865 72.0829 13.0267 71.6604 13.707C71.245 14.3802 71.0373 15.2181 71.0373 16.2207C71.0373 17.3021 71.2486 18.1686 71.6711 18.8203C72.1008 19.4648 72.7489 19.7871 73.6154 19.7871ZM81.4529 24.2451L81.8396 24.2666C82.1404 24.2809 82.4269 24.2702 82.699 24.2344C82.9712 24.1986 83.2003 24.1162 83.3865 23.9873C83.5656 23.8656 83.7303 23.6113 83.8807 23.2246C84.0382 22.8379 84.1027 22.6016 84.074 22.5156L79.7771 10.291H83.1824L85.7391 18.9277L88.1561 10.291H91.4109L87.3934 21.8066C86.6199 24.0267 86.0076 25.4017 85.5564 25.9316C85.1053 26.4688 84.2029 26.7373 82.8494 26.7373C82.5773 26.7373 82.3589 26.7337 82.1941 26.7266C82.0294 26.7266 81.7824 26.7158 81.4529 26.6943V24.2451ZM95.5854 8.91602V12.4072H99.474C100.169 12.4072 100.731 12.2783 101.161 12.0205C101.597 11.7555 101.816 11.29 101.816 10.624C101.816 9.88639 101.529 9.39941 100.956 9.16309C100.462 8.99837 99.8321 8.91602 99.0658 8.91602H95.5854ZM95.5854 15.0283V19.25H99.474C100.169 19.25 100.709 19.1569 101.096 18.9707C101.798 18.627 102.149 17.9681 102.149 16.9941C102.149 16.1706 101.809 15.6048 101.128 15.2969C100.749 15.125 100.215 15.0355 99.5277 15.0283H95.5854ZM100.119 6.16602C102.059 6.19466 103.434 6.75684 104.244 7.85254C104.731 8.52572 104.974 9.33138 104.974 10.2695C104.974 11.2363 104.731 12.0133 104.244 12.6006C103.971 12.93 103.57 13.2308 103.04 13.5029C103.85 13.7965 104.458 14.262 104.867 14.8994C105.282 15.5368 105.49 16.3102 105.49 17.2197C105.49 18.1579 105.253 18.9993 104.781 19.7441C104.48 20.2383 104.104 20.6536 103.653 20.9902C103.144 21.377 102.543 21.6419 101.848 21.7852C101.161 21.9284 100.412 22 99.6029 22H92.4271V6.16602H100.119ZM109.976 10.291V17.3486C109.976 18.0146 110.054 18.516 110.212 18.8525C110.491 19.4469 111.039 19.7441 111.855 19.7441C112.901 19.7441 113.617 19.3216 114.004 18.4766C114.204 18.0182 114.305 17.4131 114.305 16.6611V10.291H117.409V22H114.434V20.3457C114.405 20.3815 114.333 20.4889 114.219 20.668C114.104 20.847 113.968 21.0046 113.811 21.1406C113.331 21.5703 112.865 21.8639 112.414 22.0215C111.97 22.179 111.447 22.2578 110.846 22.2578C109.113 22.2578 107.945 21.6348 107.344 20.3887C107.007 19.7012 106.839 18.6878 106.839 17.3486V10.291H109.976ZM121.659 18.2617C121.723 18.806 121.863 19.1927 122.078 19.4219C122.457 19.8301 123.159 20.0342 124.183 20.0342C124.785 20.0342 125.261 19.9447 125.612 19.7656C125.97 19.5866 126.149 19.318 126.149 18.96C126.149 18.6162 126.006 18.3548 125.719 18.1758C125.433 17.9967 124.369 17.6888 122.529 17.252C121.204 16.9225 120.269 16.5107 119.725 16.0166C119.181 15.5296 118.909 14.8278 118.909 13.9111C118.909 12.8298 119.331 11.9023 120.176 11.1289C121.029 10.3483 122.225 9.95801 123.764 9.95801C125.225 9.95801 126.414 10.2516 127.331 10.8389C128.254 11.4189 128.784 12.4251 128.921 13.8574H125.859C125.816 13.4635 125.705 13.152 125.526 12.9229C125.189 12.5075 124.616 12.2998 123.807 12.2998C123.141 12.2998 122.665 12.4036 122.379 12.6113C122.099 12.819 121.96 13.0625 121.96 13.3418C121.96 13.6927 122.11 13.9469 122.411 14.1045C122.712 14.2692 123.775 14.5521 125.601 14.9531C126.819 15.2396 127.732 15.6729 128.34 16.2529C128.942 16.8402 129.243 17.5742 129.243 18.4551C129.243 19.6152 128.81 20.5641 127.943 21.3018C127.084 22.0322 125.752 22.3975 123.947 22.3975C122.106 22.3975 120.746 22.0107 119.865 21.2373C118.991 20.4567 118.554 19.4648 118.554 18.2617H121.659Z" fill="#0E0E0E"/>
<circle cx="12" cy="12" r="12" fill="#DF0000"/>
<path fill-rule="evenodd" clip-rule="evenodd" d="M17.4 19.3962H17.9985C18.3363 19.3962 18.6 19.1088 18.6 18.7543V8.49057H19.2V10.4091C19.2 10.7667 19.4656 11.0566 19.7994 11.0566H20.4006C20.7316 11.0566 21 10.772 21 10.4152V8.49044C21 8.13622 20.7316 7.84906 20.4011 7.84906H18.6V6.55966C18.6 5.14464 17.5229 4 16.1943 4H7.80573C6.48021 4 5.4 5.146 5.4 6.55966V7.84906H3.5989C3.26814 7.84906 3 8.13371 3 8.49044V10.4152C3 10.7694 3.2656 11.0566 3.59938 11.0566H4.20062C4.53165 11.0566 4.8 10.7722 4.8 10.4091V8.49057H5.4V18.7543C5.4 19.1092 5.6693 19.3962 6.00148 19.3962H6.6C6.6 20.282 7.27157 21 8.1 21C8.92843 21 9.6 20.282 9.6 19.3962H14.4C14.4 20.282 15.0716 21 15.9 21C16.7284 21 17.4 20.282 17.4 19.3962ZM16.8 19.3962H15C15 19.9277 15.4029 20.3585 15.9 20.3585C16.3971 20.3585 16.8 19.9277 16.8 19.3962ZM7.2 19.3962H9C9 19.9277 8.59706 20.3585 8.1 20.3585C7.60294 20.3585 7.2 19.9277 7.2 19.3962ZM18 8.49146H6V13.6226H18V8.49146ZM6.89429 16.1887H8.70571C8.86824 16.1887 9 16.3375 9 16.5094C9 16.6866 8.87097 16.8302 8.70571 16.8302H6.89429C6.73176 16.8302 6.6 16.6814 6.6 16.5094C6.6 16.3323 6.72903 16.1887 6.89429 16.1887ZM15.2943 16.1887H17.1057C17.2682 16.1887 17.4 16.3375 17.4 16.5094C17.4 16.6866 17.271 16.8302 17.1057 16.8302H15.2943C15.1318 16.8302 15 16.6814 15 16.5094C15 16.3323 15.129 16.1887 15.2943 16.1887ZM9.90026 5.92453H14.0997C14.2656 5.92453 14.4 6.07332 14.4 6.24528C14.4 6.42243 14.2615 6.56604 14.0997 6.56604H9.90026C9.73443 6.56604 9.6 6.41725 9.6 6.24528C9.6 6.06814 9.73847 5.92453 9.90026 5.92453Z" fill="#FAFAFA"/>
</svg>
