<svg width="27" height="27" viewBox="0 0 27 27" fill="none" xmlns="http://www.w3.org/2000/svg">
<path d="M19.6875 9C21.2408 9 22.5 7.7408 22.5 6.1875C22.5 4.6342 21.2408 3.375 19.6875 3.375C18.1342 3.375 16.875 4.6342 16.875 6.1875C16.875 7.7408 18.1342 9 19.6875 9Z" stroke="#0E0E0E" stroke-width="1.8" stroke-linejoin="round"/>
<path d="M7.3125 16.3125C8.8658 16.3125 10.125 15.0533 10.125 13.5C10.125 11.9467 8.8658 10.6875 7.3125 10.6875C5.7592 10.6875 4.5 11.9467 4.5 13.5C4.5 15.0533 5.7592 16.3125 7.3125 16.3125Z" stroke="#0E0E0E" stroke-width="1.8" stroke-linejoin="round"/>
<path d="M16.875 7.63571L9.75315 11.9506" stroke="#0E0E0E" stroke-width="1.8" stroke-linecap="round" stroke-linejoin="round"/>
<path d="M9.75316 14.9421L17.2571 19.3763" stroke="#0E0E0E" stroke-width="1.8" stroke-linecap="round" stroke-linejoin="round"/>
<path d="M19.6875 18C21.2408 18 22.5 19.2592 22.5 20.8125C22.5 22.3658 21.2408 23.625 19.6875 23.625C18.1342 23.625 16.875 22.3658 16.875 20.8125C16.875 19.2592 18.1342 18 19.6875 18Z" stroke="#0E0E0E" stroke-width="1.8" stroke-linejoin="round"/>
</svg>
