<svg width="27" height="27" viewBox="0 0 27 27" fill="none" xmlns="http://www.w3.org/2000/svg">
<path d="M7.46219 11.8841L13.4985 13.5015L19.5347 15.119L25.571 16.7364C27.0321 11.2834 24.6517 5.70613 20.0887 2.87789C19.0724 2.24796 17.9478 1.75441 16.7333 1.42898C15.3346 1.05419 13.9277 0.932158 12.5611 1.03489C7.41335 1.42186 2.83766 4.99794 1.4259 10.2667L7.46219 11.8841Z" stroke="black" stroke-width="2" stroke-linecap="round" stroke-linejoin="round"/>
<path d="M11.1923 6.41392C9.17631 9.10857 8.66941 12.2076 8.66941 12.2076L18.3275 14.7955C18.3275 14.7955 19.438 11.8582 19.0395 8.51656C18.6409 5.17493 16.7333 1.42896 16.7333 1.42896C16.7333 1.42896 13.2082 3.71926 11.1923 6.41392Z" fill="#DF0000"/>
<path d="M1.4259 10.2667L25.571 16.7364M8.66941 12.2076C8.66941 12.2076 9.17631 9.10857 11.1923 6.41392C13.2082 3.71926 16.7333 1.42896 16.7333 1.42896C16.7333 1.42896 18.6409 5.17493 19.0395 8.51656C19.438 11.8582 18.3275 14.7955 18.3275 14.7955L8.66941 12.2076Z" stroke="black" stroke-width="2" stroke-linecap="round" stroke-linejoin="round"/>
<path d="M1 26H25.9969" stroke="black" stroke-width="2" stroke-linecap="round" stroke-linejoin="round"/>
<path d="M13.4984 13.5015L10.0613 25.9999" stroke="black" stroke-width="2" stroke-linecap="round" stroke-linejoin="round"/>
<path d="M12.561 1.03489C13.9276 0.932158 15.3345 1.05419 16.7333 1.42898C17.9478 1.75441 19.0724 2.24796 20.0887 2.87789" stroke="black" stroke-width="2" stroke-linecap="round" stroke-linejoin="round"/>
</svg>
